<mxfile host="app.diagrams.net" modified="2023-07-31T19:05:06.721Z" agent="Mozilla/5.0 (Macintosh; Intel Mac OS X 10_15_7) AppleWebKit/537.36 (KHTML, like Gecko) Chrome/114.0.0.0 Safari/537.36" etag="7KGz024x829bfOdv2TXx" version="21.6.6" type="github">
  <diagram id="C5RBs43oDa-KdzZeNtuy" name="Page-1">
    <mxGraphModel dx="909" dy="563" grid="1" gridSize="10" guides="1" tooltips="1" connect="1" arrows="1" fold="1" page="1" pageScale="1" pageWidth="827" pageHeight="1169" math="0" shadow="0">
      <root>
        <mxCell id="WIyWlLk6GJQsqaUBKTNV-0" />
        <mxCell id="WIyWlLk6GJQsqaUBKTNV-1" parent="WIyWlLk6GJQsqaUBKTNV-0" />
        <mxCell id="UOUn-AxjPs3sLsC2iMMm-11" value="" style="edgeStyle=orthogonalEdgeStyle;rounded=0;orthogonalLoop=1;jettySize=auto;html=1;" edge="1" parent="WIyWlLk6GJQsqaUBKTNV-1" source="WIyWlLk6GJQsqaUBKTNV-3" target="UOUn-AxjPs3sLsC2iMMm-2">
          <mxGeometry relative="1" as="geometry" />
        </mxCell>
        <mxCell id="WIyWlLk6GJQsqaUBKTNV-3" value="бэкенд валидирует данные" style="rounded=1;whiteSpace=wrap;html=1;fontSize=12;glass=0;strokeWidth=1;shadow=0;" parent="WIyWlLk6GJQsqaUBKTNV-1" vertex="1">
          <mxGeometry x="580" y="260" width="120" height="40" as="geometry" />
        </mxCell>
        <mxCell id="UOUn-AxjPs3sLsC2iMMm-10" value="" style="edgeStyle=orthogonalEdgeStyle;rounded=0;orthogonalLoop=1;jettySize=auto;html=1;entryX=0.5;entryY=0;entryDx=0;entryDy=0;" edge="1" parent="WIyWlLk6GJQsqaUBKTNV-1" source="UOUn-AxjPs3sLsC2iMMm-0" target="WIyWlLk6GJQsqaUBKTNV-3">
          <mxGeometry relative="1" as="geometry" />
        </mxCell>
        <mxCell id="UOUn-AxjPs3sLsC2iMMm-0" value="юзер вводит данные карты в форму" style="rounded=1;whiteSpace=wrap;html=1;" vertex="1" parent="WIyWlLk6GJQsqaUBKTNV-1">
          <mxGeometry x="580" y="170" width="120" height="60" as="geometry" />
        </mxCell>
        <mxCell id="UOUn-AxjPs3sLsC2iMMm-1" value="цель: юзер заполнил данные карты и пополнил свой счет" style="rounded=0;whiteSpace=wrap;html=1;" vertex="1" parent="WIyWlLk6GJQsqaUBKTNV-1">
          <mxGeometry x="380" y="20" width="120" height="60" as="geometry" />
        </mxCell>
        <mxCell id="UOUn-AxjPs3sLsC2iMMm-6" value="" style="edgeStyle=orthogonalEdgeStyle;rounded=0;orthogonalLoop=1;jettySize=auto;html=1;" edge="1" parent="WIyWlLk6GJQsqaUBKTNV-1" source="UOUn-AxjPs3sLsC2iMMm-2" target="UOUn-AxjPs3sLsC2iMMm-3">
          <mxGeometry relative="1" as="geometry" />
        </mxCell>
        <mxCell id="UOUn-AxjPs3sLsC2iMMm-9" value="no" style="edgeLabel;html=1;align=center;verticalAlign=middle;resizable=0;points=[];" vertex="1" connectable="0" parent="UOUn-AxjPs3sLsC2iMMm-6">
          <mxGeometry x="-0.0025" y="2" relative="1" as="geometry">
            <mxPoint as="offset" />
          </mxGeometry>
        </mxCell>
        <mxCell id="UOUn-AxjPs3sLsC2iMMm-7" value="" style="edgeStyle=orthogonalEdgeStyle;rounded=0;orthogonalLoop=1;jettySize=auto;html=1;" edge="1" parent="WIyWlLk6GJQsqaUBKTNV-1" source="UOUn-AxjPs3sLsC2iMMm-2" target="UOUn-AxjPs3sLsC2iMMm-4">
          <mxGeometry relative="1" as="geometry" />
        </mxCell>
        <mxCell id="UOUn-AxjPs3sLsC2iMMm-8" value="yes" style="edgeLabel;html=1;align=center;verticalAlign=middle;resizable=0;points=[];" vertex="1" connectable="0" parent="UOUn-AxjPs3sLsC2iMMm-7">
          <mxGeometry x="-0.3536" y="2" relative="1" as="geometry">
            <mxPoint as="offset" />
          </mxGeometry>
        </mxCell>
        <mxCell id="UOUn-AxjPs3sLsC2iMMm-2" value="данные валидные?" style="rhombus;whiteSpace=wrap;html=1;" vertex="1" parent="WIyWlLk6GJQsqaUBKTNV-1">
          <mxGeometry x="600" y="340" width="80" height="80" as="geometry" />
        </mxCell>
        <mxCell id="UOUn-AxjPs3sLsC2iMMm-3" value="отображаем ошибки юзеру" style="rounded=1;whiteSpace=wrap;html=1;fontSize=12;glass=0;strokeWidth=1;shadow=0;fillColor=#f8cecc;strokeColor=#b85450;" vertex="1" parent="WIyWlLk6GJQsqaUBKTNV-1">
          <mxGeometry x="730" y="360" width="120" height="40" as="geometry" />
        </mxCell>
        <mxCell id="UOUn-AxjPs3sLsC2iMMm-14" value="" style="edgeStyle=orthogonalEdgeStyle;rounded=0;orthogonalLoop=1;jettySize=auto;html=1;" edge="1" parent="WIyWlLk6GJQsqaUBKTNV-1" source="UOUn-AxjPs3sLsC2iMMm-4" target="UOUn-AxjPs3sLsC2iMMm-13">
          <mxGeometry relative="1" as="geometry" />
        </mxCell>
        <mxCell id="UOUn-AxjPs3sLsC2iMMm-4" value="запросить доверие карты приложению" style="rounded=1;whiteSpace=wrap;html=1;fontSize=12;glass=0;strokeWidth=1;shadow=0;" vertex="1" parent="WIyWlLk6GJQsqaUBKTNV-1">
          <mxGeometry x="370" y="360" width="120" height="40" as="geometry" />
        </mxCell>
        <mxCell id="UOUn-AxjPs3sLsC2iMMm-20" value="yes" style="edgeStyle=orthogonalEdgeStyle;rounded=0;orthogonalLoop=1;jettySize=auto;html=1;" edge="1" parent="WIyWlLk6GJQsqaUBKTNV-1" source="UOUn-AxjPs3sLsC2iMMm-13" target="UOUn-AxjPs3sLsC2iMMm-18">
          <mxGeometry relative="1" as="geometry" />
        </mxCell>
        <mxCell id="UOUn-AxjPs3sLsC2iMMm-22" value="" style="edgeStyle=orthogonalEdgeStyle;rounded=0;orthogonalLoop=1;jettySize=auto;html=1;" edge="1" parent="WIyWlLk6GJQsqaUBKTNV-1" source="UOUn-AxjPs3sLsC2iMMm-13" target="UOUn-AxjPs3sLsC2iMMm-19">
          <mxGeometry relative="1" as="geometry" />
        </mxCell>
        <mxCell id="UOUn-AxjPs3sLsC2iMMm-23" value="no" style="edgeLabel;html=1;align=center;verticalAlign=middle;resizable=0;points=[];" vertex="1" connectable="0" parent="UOUn-AxjPs3sLsC2iMMm-22">
          <mxGeometry x="-0.569" y="2" relative="1" as="geometry">
            <mxPoint x="13" y="2" as="offset" />
          </mxGeometry>
        </mxCell>
        <mxCell id="UOUn-AxjPs3sLsC2iMMm-13" value="операция завершается успешно?" style="rhombus;whiteSpace=wrap;html=1;" vertex="1" parent="WIyWlLk6GJQsqaUBKTNV-1">
          <mxGeometry x="370" y="450" width="120" height="80" as="geometry" />
        </mxCell>
        <mxCell id="UOUn-AxjPs3sLsC2iMMm-25" value="" style="edgeStyle=orthogonalEdgeStyle;rounded=0;orthogonalLoop=1;jettySize=auto;html=1;" edge="1" parent="WIyWlLk6GJQsqaUBKTNV-1" source="UOUn-AxjPs3sLsC2iMMm-18" target="UOUn-AxjPs3sLsC2iMMm-24">
          <mxGeometry relative="1" as="geometry" />
        </mxCell>
        <mxCell id="UOUn-AxjPs3sLsC2iMMm-18" value="сохранить карту" style="rounded=1;whiteSpace=wrap;html=1;fontSize=12;glass=0;strokeWidth=1;shadow=0;" vertex="1" parent="WIyWlLk6GJQsqaUBKTNV-1">
          <mxGeometry x="150" y="470" width="120" height="40" as="geometry" />
        </mxCell>
        <mxCell id="UOUn-AxjPs3sLsC2iMMm-19" value="" style="rounded=1;whiteSpace=wrap;html=1;fontSize=12;glass=0;strokeWidth=1;shadow=0;" vertex="1" parent="WIyWlLk6GJQsqaUBKTNV-1">
          <mxGeometry x="570" y="470" width="120" height="40" as="geometry" />
        </mxCell>
        <mxCell id="UOUn-AxjPs3sLsC2iMMm-24" value="показываем юзеру успешный ответ" style="rounded=1;whiteSpace=wrap;html=1;fontSize=12;glass=0;strokeWidth=1;shadow=0;fillColor=#d5e8d4;strokeColor=#82b366;" vertex="1" parent="WIyWlLk6GJQsqaUBKTNV-1">
          <mxGeometry x="150" y="560" width="120" height="40" as="geometry" />
        </mxCell>
      </root>
    </mxGraphModel>
  </diagram>
</mxfile>
